<svg width="31" height="31" viewBox="0 0 31 31" fill="none" xmlns="http://www.w3.org/2000/svg">
<path opacity="0.68" d="M15.5 0.916656C7.44999 0.916656 0.916656 7.44999 0.916656 15.5C0.916656 23.55 7.44999 30.0833 15.5 30.0833C23.55 30.0833 30.0833 23.55 30.0833 15.5C30.0833 7.44999 23.55 0.916656 15.5 0.916656ZM8.31041 24.6583C8.93749 23.3458 12.7583 22.0625 15.5 22.0625C18.2417 22.0625 22.0771 23.3458 22.6896 24.6583C20.7062 26.2333 18.2125 27.1667 15.5 27.1667C12.7875 27.1667 10.2937 26.2333 8.31041 24.6583ZM24.775 22.5437C22.6896 20.0062 17.6292 19.1458 15.5 19.1458C13.3708 19.1458 8.31041 20.0062 6.22499 22.5437C4.73749 20.5896 3.83332 18.1542 3.83332 15.5C3.83332 9.06874 9.06874 3.83332 15.5 3.83332C21.9312 3.83332 27.1667 9.06874 27.1667 15.5C27.1667 18.1542 26.2625 20.5896 24.775 22.5437ZM15.5 6.74999C12.6708 6.74999 10.3958 9.02499 10.3958 11.8542C10.3958 14.6833 12.6708 16.9583 15.5 16.9583C18.3292 16.9583 20.6042 14.6833 20.6042 11.8542C20.6042 9.02499 18.3292 6.74999 15.5 6.74999ZM15.5 14.0417C14.2896 14.0417 13.3125 13.0646 13.3125 11.8542C13.3125 10.6437 14.2896 9.66666 15.5 9.66666C16.7104 9.66666 17.6875 10.6437 17.6875 11.8542C17.6875 13.0646 16.7104 14.0417 15.5 14.0417Z" fill="#758BA7"/>
</svg>
